<svg width="19" height="19" viewBox="0 0 19 19" fill="none" xmlns="http://www.w3.org/2000/svg">
<g id="close_FILL0_wght400_GRAD0_opsz24 (1) 1">
<path id="Vector" d="M9.50013 10.6082L5.62096 14.4874C5.47582 14.6325 5.2911 14.7051 5.0668 14.7051C4.84249 14.7051 4.65777 14.6325 4.51263 14.4874C4.36749 14.3422 4.29492 14.1575 4.29492 13.9332C4.29492 13.7089 4.36749 13.5242 4.51263 13.3791L8.3918 9.49989L4.51263 5.62072C4.36749 5.47558 4.29492 5.29086 4.29492 5.06655C4.29492 4.84225 4.36749 4.65752 4.51263 4.51239C4.65777 4.36725 4.84249 4.29468 5.0668 4.29468C5.2911 4.29468 5.47582 4.36725 5.62096 4.51239L9.50013 8.39155L13.3793 4.51239C13.5244 4.36725 13.7092 4.29468 13.9335 4.29468C14.1578 4.29468 14.3425 4.36725 14.4876 4.51239C14.6328 4.65752 14.7053 4.84225 14.7053 5.06655C14.7053 5.29086 14.6328 5.47558 14.4876 5.62072L10.6085 9.49989L14.4876 13.3791C14.6328 13.5242 14.7053 13.7089 14.7053 13.9332C14.7053 14.1575 14.6328 14.3422 14.4876 14.4874C14.3425 14.6325 14.1578 14.7051 13.9335 14.7051C13.7092 14.7051 13.5244 14.6325 13.3793 14.4874L9.50013 10.6082Z" fill="#2B2B2B"/>
</g>
</svg>
