<svg width="10" height="10" viewBox="0 0 10 10" fill="none" xmlns="http://www.w3.org/2000/svg">
<g id="Group">
<path id="Vector" d="M3.94396 0.0213394C2.98472 0.145233 2.10484 0.55899 1.40699 1.21819C0.258706 2.30518 -0.236085 3.91813 0.107001 5.46329C0.639134 7.85466 2.98472 9.38346 5.37932 8.89957C5.92079 8.7897 6.50194 8.54659 6.97106 8.23335C7.11342 8.13751 7.23946 8.04868 7.24879 8.03466C7.25813 8.02063 7.66656 8.41101 8.22437 8.96736C8.8732 9.61722 9.21162 9.93981 9.26997 9.96318C9.38433 10.0123 9.62005 10.0123 9.71574 9.96318C9.9468 9.8463 10.0495 9.60553 9.97714 9.35073C9.9398 9.21982 9.91413 9.19411 8.96889 8.24504C8.41808 7.69103 8.01198 7.26558 8.02599 7.25623C8.075 7.22351 8.38541 6.73728 8.49977 6.5082C9.27463 4.96304 9.10192 3.13036 8.05633 1.75584C7.32348 0.79275 6.20786 0.156921 5.0059 0.019002C4.76317 -0.00671196 4.16335 -0.00671196 3.94396 0.0213394ZM5.05958 1.05924C6.30122 1.26027 7.37482 2.17194 7.77392 3.36178C7.91396 3.78489 7.9443 3.98358 7.9443 4.48383C7.9443 4.8672 7.9373 4.97707 7.89295 5.1781C7.72724 5.94484 7.35615 6.583 6.77734 7.09961C6.3339 7.49467 5.78776 7.76817 5.17394 7.90141C4.85186 7.97154 4.17969 7.97622 3.86228 7.9131C2.46893 7.63025 1.43033 6.62976 1.10358 5.25524C1.01723 4.89291 1.00323 4.29916 1.06858 3.91112C1.18994 3.20984 1.49335 2.60206 1.98114 2.0948C2.34756 1.71143 2.72332 1.45663 3.19711 1.26495C3.79459 1.02417 4.41775 0.956383 5.05958 1.05924Z" fill="#B3B3B3"/>
</g>
</svg>
